<svg xmlns="http://www.w3.org/2000/svg" style="display: none;"><symbol id="whatsapp" viewBox="-23 -21 682 682.66669"><title>whatsapp</title><path d="m544.386719 93.007812c-59.875-59.945312-139.503907-92.9726558-224.335938-93.007812-174.804687 0-317.070312 142.261719-317.140625 317.113281-.023437 55.894531 14.578125 110.457031 42.332032 158.550781l-44.992188 164.335938 168.121094-44.101562c46.324218 25.269531 98.476562 38.585937 151.550781 38.601562h.132813c174.785156 0 317.066406-142.273438 317.132812-317.132812.035156-84.742188-32.921875-164.417969-92.800781-224.359376zm-224.335938 487.933594h-.109375c-47.296875-.019531-93.683594-12.730468-134.160156-36.742187l-9.621094-5.714844-99.765625 26.171875 26.628907-97.269531-6.269532-9.972657c-26.386718-41.96875-40.320312-90.476562-40.296875-140.28125.054688-145.332031 118.304688-263.570312 263.699219-263.570312 70.40625.023438 136.589844 27.476562 186.355469 77.300781s77.15625 116.050781 77.132812 186.484375c-.0625 145.34375-118.304687 263.59375-263.59375 263.59375zm144.585938-197.417968c-7.921875-3.96875-46.882813-23.132813-54.148438-25.78125-7.257812-2.644532-12.546875-3.960938-17.824219 3.96875-5.285156 7.929687-20.46875 25.78125-25.09375 31.066406-4.625 5.289062-9.242187 5.953125-17.167968 1.984375-7.925782-3.964844-33.457032-12.335938-63.726563-39.332031-23.554687-21.011719-39.457031-46.960938-44.082031-54.890626-4.617188-7.9375-.039062-11.8125 3.476562-16.171874 8.578126-10.652344 17.167969-21.820313 19.808594-27.105469 2.644532-5.289063 1.320313-9.917969-.664062-13.882813-1.976563-3.964844-17.824219-42.96875-24.425782-58.839844-6.4375-15.445312-12.964843-13.359374-17.832031-13.601562-4.617187-.230469-9.902343-.277344-15.1875-.277344-5.28125 0-13.867187 1.980469-21.132812 9.917969-7.261719 7.933594-27.730469 27.101563-27.730469 66.105469s28.394531 76.683594 32.355469 81.972656c3.960937 5.289062 55.878906 85.328125 135.367187 119.648438 18.90625 8.171874 33.664063 13.042968 45.175782 16.695312 18.984374 6.03125 36.253906 5.179688 49.910156 3.140625 15.226562-2.277344 46.878906-19.171875 53.488281-37.679687 6.601563-18.511719 6.601563-34.375 4.617187-37.683594-1.976562-3.304688-7.261718-5.285156-15.183593-9.253906zm0 0" fill-rule="evenodd"/></symbol><symbol id="facebook" viewBox="-21 -21 682.66669 682.66669"><title>facebook</title><path d="m604.671875 0h-569.375c-19.496094.0117188-35.30078125 15.824219-35.296875 35.328125v569.375c.0117188 19.496094 15.824219 35.300781 35.328125 35.296875h306.546875v-247.5h-83.125v-96.875h83.125v-71.292969c0-82.675781 50.472656-127.675781 124.222656-127.675781 35.324219 0 65.679688 2.632812 74.527344 3.808594v86.410156h-50.855469c-40.125 0-47.894531 19.066406-47.894531 47.050781v61.699219h95.9375l-12.5 96.875h-83.4375v247.5h162.796875c19.507813.003906 35.324219-15.804688 35.328125-35.3125 0-.003906 0-.007812 0-.015625v-569.375c-.007812-19.496094-15.824219-35.30078125-35.328125-35.296875zm0 0"/></symbol><symbol id="behance" viewBox="0 0 455 455"><title>behance</title><path style="fill-rule:evenodd;clip-rule:evenodd;" d="M181.289,242.565c-5.597-4.246-13.062-6.358-22.245-6.358h-46.379v53.356 h45.524c4.211,0,8.205-0.373,11.963-1.214c3.815-0.834,7.199-2.156,10.052-4.11c2.853-1.879,5.216-4.455,6.934-7.731 c1.724-3.247,2.55-7.465,2.55-12.559C189.688,253.961,186.879,246.873,181.289,242.565z"/><path style="fill-rule:evenodd;clip-rule:evenodd;" d="M174.606,201.654c4.907-3.582,7.286-9.502,7.286-17.621 c0-4.509-0.79-8.235-2.379-11.126c-1.645-2.892-3.822-5.155-6.574-6.739c-2.73-1.649-5.813-2.788-9.391-3.402 c-3.513-0.687-7.199-0.956-10.972-0.956h-39.913v45.276h43.168C163.391,207.086,169.649,205.293,174.606,201.654z"/><path style="fill-rule:evenodd;clip-rule:evenodd;" d="M0,0v455h455V0H0z M275.636,141.802h78.54v19.12h-78.54V141.802z M226.605,291.707c-3.793,7.204-8.959,13.041-15.326,17.546c-6.416,4.545-13.788,7.878-22.044,10.048 c-8.162,2.17-16.64,3.262-25.32,3.262H70V128.804h91.351c9.269,0,17.632,0.801,25.277,2.458c7.602,1.613,14.09,4.304,19.572,7.993 c5.396,3.69,9.621,8.597,12.645,14.78c2.953,6.09,4.434,13.717,4.434,22.734c0,9.754-2.213,17.901-6.639,24.414 c-4.462,6.502-11.014,11.838-19.773,15.98c11.927,3.427,20.758,9.463,26.613,18.045c5.885,8.641,8.766,18.979,8.766,31.101 C232.245,276.134,230.363,284.595,226.605,291.707z M384.755,261.692H283.518c0,11.09,3.75,21.591,9.542,27.227 c5.769,5.637,14.111,8.471,24.917,8.471c7.774,0,14.492-1.965,20.125-5.881c5.583-3.912,8.981-8.094,10.296-12.437h33.935 c-5.453,16.888-13.73,28.944-25.018,36.202c-11.158,7.289-24.768,10.921-40.624,10.921c-11.051,0-20.995-1.789-29.926-5.313 c-8.924-3.568-16.382-8.568-22.654-15.085c-6.115-6.549-10.864-14.287-14.248-23.38c-3.348-9.043-5.037-19.055-5.037-29.905 c0-10.49,1.753-20.291,5.18-29.348c3.499-9.089,8.335-16.931,14.694-23.509c6.373-6.614,13.931-11.834,22.733-15.645 c8.802-3.798,18.508-5.709,29.258-5.709c11.869,0,22.266,2.284,31.176,6.937c8.88,4.588,16.159,10.807,21.878,18.592 c5.719,7.771,9.786,16.659,12.33,26.628C384.597,240.41,385.481,250.807,384.755,261.692z"/><path style="fill-rule:evenodd;clip-rule:evenodd;" d="M315.534,207.398c-6.157,0-11.252,1.035-15.332,3.147 c-3.988,2.084-7.257,4.677-9.757,7.731c-2.486,3.104-4.182,6.38-5.166,9.883c-0.991,3.413-1.58,6.51-1.76,9.248h62.697 c-0.92-9.826-4.283-17.09-8.881-22.198C332.757,210.139,324.997,207.398,315.534,207.398z"/></symbol><symbol id="dribble-big-logo" viewBox="0 0 473.325 473.325"><title>dribble-big-logo</title><path style="fill-rule:evenodd;clip-rule:evenodd;" d="M236.662,473.297C106.162,473.297,0,367.127,0,236.65 C0,106.197,106.162,0.028,236.662,0.028S473.325,106.197,473.325,236.65C473.325,367.127,367.162,473.297,236.662,473.297z M425.801,267.356c-6.547-2.041-59.293-17.799-119.316-8.197c25.055,68.838,35.256,124.943,37.212,136.571 C386.67,366.675,417.274,320.656,425.801,267.356z M311.502,413.281c-2.867-16.803-13.988-75.386-40.884-145.254 c-0.405,0.141-0.826,0.265-1.263,0.421c-108.032,37.619-146.819,112.584-150.271,119.629 c32.467,25.313,73.297,40.424,117.578,40.424C263.191,428.5,288.496,423.06,311.502,413.281z M94.348,365.024 c4.332-7.435,56.914-94.473,155.704-126.409c2.501-0.811,5.018-1.559,7.543-2.261c-4.801-10.902-10.029-21.767-15.53-32.521 c-95.657,28.633-188.484,27.448-196.879,27.262c-0.055,1.948-0.085,3.904-0.085,5.852C45.101,286.154,63.75,331.068,94.348,365.024 z M49.145,197.723c8.574,0.108,87.49,0.436,177.099-23.334c-31.735-56.432-65.972-103.871-71.03-110.775 C101.626,88.879,61.56,138.282,49.145,197.723z M191.773,50.747c5.299,7.084,40.088,54.453,71.48,112.131 c68.129-25.561,96.949-64.287,100.387-69.182c-33.823-30.035-78.309-48.264-126.979-48.264 C221.201,45.432,206.175,47.271,191.773,50.747z M384.939,115.822c-4.029,5.472-36.145,46.62-106.965,75.51 c4.459,9.15,8.728,18.439,12.719,27.761c1.396,3.32,2.774,6.609,4.115,9.882c63.742-8.012,127.072,4.824,133.408,6.18 C427.787,189.945,411.632,148.429,384.939,115.822z"/></symbol><symbol id="gmail" viewBox="0 0 512 512"><title>gmail</title><path d="M464,64h-16H64H48C21.504,64,0,85.504,0,112v16v256v16c0,26.496,21.504,48,48,48h16h384h16c26.496,0,48-21.504,48-48v-16 V128v-16C512,85.504,490.496,64,464,64z M407.488,96L256,215.616L104.512,96H407.488z M448,416H64V148.672l192,147.68L448,148.64 V416z"/></symbol></svg>